<svg width="263" height="263" viewBox="0 0 263 263" fill="none" xmlns="http://www.w3.org/2000/svg">
<circle cx="131.5" cy="131.5" r="131.5" fill="#F7FAFC"/>
<circle cx="131.5" cy="131.5" r="98.5" fill="#CBD5E0"/>
<circle cx="131.5" cy="131.5" r="68.5" fill="#718096"/>
<g filter="url(#filter0_d)">
<path d="M109.738 107.147H119.116V90.5606H125.909V82.9575H119.116V67.8608H114.388C112.85 67.8608 112.08 67.8608 111.482 68.1364C110.834 68.4354 110.313 68.9561 110.014 69.6048C109.738 70.2026 109.738 70.972 109.738 72.5108V107.147ZM75.9954 85.1924C75.9954 93.2776 82.6564 99.2593 91.0483 99.2593C99.5059 99.2593 106.233 93.2776 106.233 85.1924C106.233 77.1072 99.5059 71.1913 91.0483 71.1913C82.6564 71.1913 75.9954 77.1072 75.9954 85.1924ZM91.0483 79.2545C94.4445 79.2545 97.03 81.1827 97.03 85.1924C97.03 89.1364 94.4445 91.1741 91.0483 91.1741C87.7835 91.1741 85.1323 89.1364 85.1323 85.1924C85.1323 81.1827 87.7835 79.2545 91.0483 79.2545ZM83.3356 103.072V121.477H120.782V114.071H92.7792V103.072H83.3356Z" fill="url(#paint0_linear)"/>
<path d="M172.873 67.8608V98.5143H182.317V77.1608C182.317 74.0832 182.317 72.5444 181.766 71.3488C181.168 70.0514 180.126 69.01 178.829 68.4119C177.633 67.8608 176.094 67.8608 173.017 67.8608H172.873ZM136.107 90.4949L140.598 97.7693C146.952 95.9945 151.094 92.2916 153.57 87.6026C155.98 91.8533 159.924 95.1838 165.971 96.8491L170.397 89.6403C161.151 87.0329 158.324 80.9417 158.324 74.9381V74.4171C158.324 72.8782 158.324 72.1088 158.049 71.5111C157.75 70.8624 157.229 70.3417 156.58 70.0426C155.982 69.7671 155.213 69.7671 153.674 69.7671H148.683V74.9381C148.683 80.9855 145.725 87.7122 136.107 90.4949ZM145.484 121.718H182.317V100.618H145.484V121.718ZM173.114 114.444H154.665V107.892H173.114V114.444Z" fill="url(#paint1_linear)"/>
<path d="M112.083 170.519H121.526V138.2H112.083V170.519ZM75.3162 161.689L79.8737 169.051C86.1621 167.189 90.3033 163.354 92.7792 158.665C95.1894 163.004 99.0677 166.378 105.115 168.175L109.607 160.834C100.36 158.249 97.5339 151.895 97.5339 145.716V140.589H87.8931V145.716C87.8931 151.939 84.9351 158.862 75.3162 161.689ZM83.9491 175.379C83.9491 176.917 83.9491 177.687 84.2247 178.284C84.5237 178.933 85.0444 179.454 85.6931 179.753C86.2909 180.029 87.0603 180.029 88.5991 180.029H112.083V192.671H121.526V172.688H83.9491V175.379Z" fill="url(#paint2_linear)"/>
<path d="M170.594 169.051H180.104V157.942H186.699V150.405H180.104V138.135H170.594V169.051ZM138.254 141.575V167.013H143.008C155.717 167.013 161.896 166.75 168.053 165.348L167.198 157.986C161.896 159.169 156.966 159.476 147.632 159.607V148.915H162.882V141.575H138.254ZM143.14 181.387C143.14 188.42 150.612 192.737 161.83 192.737C173.114 192.737 180.586 188.42 180.586 181.387C180.586 174.288 173.114 169.971 161.83 169.971C150.612 169.971 143.14 174.288 143.14 181.387ZM152.452 181.387C152.452 178.539 155.607 177.377 161.83 177.377C168.053 177.377 171.274 178.539 171.274 181.387C171.274 184.148 168.053 185.331 161.83 185.331C155.607 185.331 152.452 184.148 152.452 181.387Z" fill="url(#paint3_linear)"/>
<path d="M109.238 107.147V107.647H109.738H119.116H119.616V107.147V91.0606H125.909H126.409V90.5606V82.9575V82.4575H125.909H119.616V67.8608V67.3608H119.116H114.388H114.368C113.616 67.3608 113.023 67.3608 112.545 67.3966C112.058 67.4332 111.649 67.5091 111.273 67.6823C110.516 68.0312 109.909 68.6387 109.56 69.3955C109.387 69.7712 109.311 70.1799 109.274 70.6675C109.238 71.1457 109.238 71.7382 109.238 72.4904V72.5108V107.147ZM83.3356 102.572H82.8356V103.072V121.477V121.977H83.3356H120.782H121.282V121.477V114.071V113.571H120.782H93.2792V103.072V102.572H92.7792H83.3356ZM172.873 67.3608H172.373V67.8608V98.5143V99.0143H172.873H182.317H182.817V98.5143V77.1608V77.1396C182.817 75.6187 182.817 74.4492 182.747 73.5116C182.676 72.5646 182.531 71.8141 182.22 71.1395C181.572 69.734 180.444 68.6058 179.038 67.9579C178.364 67.6469 177.613 67.5021 176.666 67.4311C175.728 67.3608 174.559 67.3608 173.038 67.3608H173.017H172.873ZM135.968 90.0146L135.335 90.1975L135.681 90.7576L140.173 98.032L140.37 98.3521L140.733 98.2509C146.871 96.5365 151.007 93.0487 153.586 88.6057C156.094 92.6124 160.028 95.7311 165.838 97.3311L166.201 97.4309L166.397 97.1107L170.823 89.902L171.169 89.3385L170.533 89.1591C165.998 87.8803 163.085 85.7624 161.3 83.2715C159.512 80.777 158.824 77.8626 158.824 74.9381V74.4171V74.3967C158.824 73.6445 158.824 73.0519 158.788 72.5738C158.752 72.0862 158.676 71.6775 158.503 71.3017C158.154 70.5449 157.546 69.9374 156.79 69.5886L156.58 70.0426L156.79 69.5886C156.414 69.4153 156.005 69.3395 155.518 69.3029C155.039 69.267 154.447 69.2671 153.695 69.2671H153.674H148.683H148.183V69.7671V74.9381C148.183 77.8822 147.464 80.9701 145.592 83.6548C143.724 86.3343 140.682 88.6507 135.968 90.0146ZM144.984 121.718V122.218H145.484H182.317H182.817V121.718V100.618V100.118H182.317H145.484H144.984V100.618V121.718ZM111.583 170.519V171.019H112.083H121.526H122.026V170.519V138.2V137.7H121.526H112.083H111.583V138.2V170.519ZM75.1752 161.209L74.5457 161.394L74.891 161.952L79.4485 169.314L79.6495 169.639L80.0156 169.531C86.0885 167.732 90.2155 164.124 92.7907 159.677C95.2898 163.761 99.163 166.928 104.973 168.654L105.341 168.763L105.542 168.436L110.033 161.095L110.379 160.531L109.742 160.353C105.213 159.087 102.3 156.912 100.514 154.338C98.7235 151.758 98.0339 148.731 98.0339 145.716V140.589V140.089H97.5339H87.8931H87.3931V140.589V145.716C87.3931 148.751 86.6718 151.933 84.798 154.695C82.9283 157.451 79.8862 159.825 75.1752 161.209ZM88.5991 180.529H111.583V192.671V193.171H112.083H121.526H122.026V192.671V172.688V172.188H121.526H83.9491H83.4491V172.688V175.379V175.399C83.4491 176.151 83.4491 176.744 83.4849 177.222C83.5215 177.709 83.5974 178.118 83.7706 178.494C84.1195 179.251 84.727 179.858 85.4838 180.207C85.8595 180.38 86.2682 180.456 86.7558 180.493C87.234 180.529 87.8266 180.529 88.5787 180.529H88.5991ZM170.094 169.051V169.551H170.594H180.104H180.604V169.051V158.442H186.699H187.199V157.942V150.405V149.905H186.699H180.604V138.135V137.635H180.104H170.594H170.094V138.135V169.051ZM138.254 141.075H137.754V141.575V167.013V167.513H138.254H143.008C155.713 167.513 161.945 167.252 168.164 165.836L168.601 165.736L168.549 165.29L167.695 157.928L167.631 157.377L167.089 157.498C161.937 158.648 157.134 158.965 148.132 159.1V149.415H162.882H163.382V148.915V141.575V141.075H162.882H138.254ZM75.4954 85.1924C75.4954 93.5905 82.4185 99.7593 91.0483 99.7593C99.7393 99.7593 106.733 93.5946 106.733 85.1924C106.733 76.7873 99.7361 70.6913 91.0483 70.6913C82.4217 70.6913 75.4954 76.7913 75.4954 85.1924ZM91.0483 79.7545C92.6555 79.7545 94.0184 80.2102 94.9745 81.0881C95.9236 81.9596 96.53 83.3 96.53 85.1924C96.53 87.0501 95.9246 88.4046 94.971 89.2972C94.012 90.1949 92.6486 90.6741 91.0483 90.6741C89.518 90.6741 88.1693 90.1973 87.2077 89.2972C86.2518 88.4024 85.6323 87.0464 85.6323 85.1924C85.6323 83.3038 86.2527 81.9617 87.2042 81.0881C88.1628 80.208 89.511 79.7545 91.0483 79.7545ZM172.614 113.944H155.165V108.392H172.614V113.944ZM142.64 181.387C142.64 185.113 144.631 188.098 148.021 190.128C151.395 192.149 156.166 193.237 161.83 193.237C167.526 193.237 172.314 192.149 175.696 190.129C179.094 188.099 181.086 185.113 181.086 181.387C181.086 177.63 179.096 174.627 175.697 172.588C172.314 170.559 167.526 169.471 161.83 169.471C156.166 169.471 151.394 170.56 148.02 172.588C144.629 174.628 142.64 177.63 142.64 181.387ZM152.952 181.387C152.952 180.774 153.119 180.278 153.438 179.864C153.762 179.444 154.269 179.077 154.998 178.776C156.47 178.169 158.732 177.877 161.83 177.877C164.927 177.877 167.207 178.169 168.696 178.777C169.435 179.078 169.95 179.446 170.28 179.867C170.604 180.281 170.774 180.776 170.774 181.387C170.774 181.972 170.606 182.451 170.283 182.856C169.953 183.268 169.437 183.631 168.698 183.931C167.207 184.534 164.926 184.831 161.83 184.831C158.734 184.831 156.47 184.534 154.997 183.932C154.266 183.633 153.759 183.27 153.435 182.859C153.117 182.455 152.952 181.974 152.952 181.387Z" stroke="#718096"/>
</g>
<defs>
<filter id="filter0_d" x="61.4349" y="60.6907" width="138.604" height="151.557" filterUnits="userSpaceOnUse" color-interpolation-filters="sRGB">
<feFlood flood-opacity="0" result="BackgroundImageFix"/>
<feColorMatrix in="SourceAlpha" type="matrix" values="0 0 0 0 0 0 0 0 0 0 0 0 0 0 0 0 0 0 127 0"/>
<feOffset dy="6.17014"/>
<feGaussianBlur stdDeviation="6.17014"/>
<feColorMatrix type="matrix" values="0 0 0 0 0 0 0 0 0 0 0 0 0 0 0 0 0 0 0.36 0"/>
<feBlend mode="normal" in2="BackgroundImageFix" result="effect1_dropShadow"/>
<feBlend mode="normal" in="SourceGraphic" in2="effect1_dropShadow" result="shape"/>
</filter>
<linearGradient id="paint0_linear" x1="130.98" y1="60.3225" x2="130.98" y2="201.002" gradientUnits="userSpaceOnUse">
<stop stop-color="#F7FAFC"/>
<stop offset="1" stop-color="#FFF6E6"/>
</linearGradient>
<linearGradient id="paint1_linear" x1="130.98" y1="60.3225" x2="130.98" y2="201.002" gradientUnits="userSpaceOnUse">
<stop stop-color="#F7FAFC"/>
<stop offset="1" stop-color="#FFF6E6"/>
</linearGradient>
<linearGradient id="paint2_linear" x1="130.98" y1="60.3225" x2="130.98" y2="201.002" gradientUnits="userSpaceOnUse">
<stop stop-color="#F7FAFC"/>
<stop offset="1" stop-color="#FFF6E6"/>
</linearGradient>
<linearGradient id="paint3_linear" x1="130.98" y1="60.3225" x2="130.98" y2="201.002" gradientUnits="userSpaceOnUse">
<stop stop-color="#F7FAFC"/>
<stop offset="1" stop-color="#FFF6E6"/>
</linearGradient>
</defs>
</svg>
